<?xml version="1.0" encoding="UTF-8"?>
<svg id="Layer_1" xmlns="http://www.w3.org/2000/svg" viewBox="0 0 601.5 216.22">
  <defs>
    <style>.cls-1{fill:#000033;}</style>
  </defs>
  <path class="cls-1" d="M57.75,137.17c-4.07,1.46-12.11,3.86-21.62,3.86-10.65,0-19.42-2.71-26.32-9.29-6.06-5.85-9.82-15.25-9.82-26.21.1-20.99,14.52-36.34,38.12-36.34,8.15,0,14.52,1.78,17.54,3.24l-2.19,7.41c-3.76-1.67-8.46-3.03-15.56-3.03-17.13,0-28.3,10.65-28.3,28.3s10.76,28.41,27.15,28.41c5.95,0,10.03-.84,12.11-1.88v-20.99h-14.31v-7.31h23.18v33.84Z"/>
  <path class="cls-1" d="M103.9,118.17l-7.31,22.14h-9.4l23.91-70.39h10.97l24.02,70.39h-9.71l-7.52-22.14h-24.96ZM126.98,111.07l-6.89-20.26c-1.57-4.59-2.61-8.77-3.66-12.84h-.21c-1.04,4.18-2.19,8.46-3.55,12.74l-6.89,20.36h21.2Z"/>
  <path class="cls-1" d="M177.32,70.86c4.6-.94,11.17-1.46,17.44-1.46,9.71,0,15.98,1.78,20.36,5.74,3.55,3.13,5.54,7.94,5.54,13.37,0,9.29-5.85,15.46-13.26,17.96v.31c5.43,1.88,8.67,6.89,10.34,14.2,2.3,9.82,3.97,16.6,5.43,19.32h-9.4c-1.15-1.98-2.72-8.04-4.7-16.81-2.09-9.71-5.85-13.37-14.1-13.68h-8.56v30.49h-9.09v-69.45ZM186.4,102.92h9.29c9.71,0,15.87-5.33,15.87-13.37,0-9.09-6.58-13.05-16.19-13.16-4.39,0-7.52.42-8.98.84v25.69Z"/>
  <path class="cls-1" d="M266.29,118.17l-7.31,22.14h-9.4l23.91-70.39h10.97l24.02,70.39h-9.71l-7.52-22.14h-24.96ZM289.37,111.07l-6.89-20.26c-1.57-4.59-2.61-8.77-3.65-12.84h-.21c-1.04,4.18-2.19,8.46-3.55,12.74l-6.89,20.36h21.2Z"/>
  <path class="cls-1" d="M339.7,140.31v-70.39h9.92l22.56,35.61c5.22,8.25,9.29,15.66,12.64,22.87l.21-.1c-.83-9.4-1.04-17.96-1.04-28.93v-29.45h8.56v70.39h-9.19l-22.35-35.72c-4.91-7.83-9.61-15.87-13.16-23.5l-.31.1c.52,8.88.73,17.34.73,29.03v30.08h-8.56Z"/>
  <path class="cls-1" d="M442.66,77.65h-21.41v-7.73h52.11v7.73h-21.51v62.66h-9.19v-62.66Z"/>
  <path class="cls-1" d="M511.17,69.92v70.39h-9.09v-70.39h9.09Z"/>
  <path class="cls-1" d="M559.31,118.17l-7.31,22.14h-9.4l23.92-70.39h10.97l24.02,70.39h-9.71l-7.52-22.14h-24.96ZM582.39,111.07l-6.89-20.26c-1.57-4.59-2.61-8.77-3.66-12.84h-.21c-1.04,4.18-2.19,8.46-3.55,12.74l-6.89,20.36h21.2Z"/>
  <path class="cls-1" d="M216.21,214.72c-1.5.75-4.5,1.5-8.34,1.5-8.9,0-15.6-5.62-15.6-15.98s6.7-16.59,16.49-16.59c3.94,0,6.42.84,7.5,1.41l-.98,3.33c-1.55-.75-3.75-1.31-6.37-1.31-7.4,0-12.32,4.73-12.32,13.03,0,7.73,4.45,12.7,12.14,12.7,2.48,0,5.01-.52,6.65-1.31l.84,3.23Z"/>
  <path class="cls-1" d="M235.99,205.82l-3.28,9.93h-4.22l10.73-31.58h4.92l10.78,31.58h-4.36l-3.37-9.93h-11.2ZM246.34,202.63l-3.09-9.09c-.7-2.06-1.17-3.94-1.64-5.76h-.09c-.47,1.88-.98,3.8-1.59,5.72l-3.09,9.14h9.51Z"/>
  <path class="cls-1" d="M268.93,184.54c1.97-.33,4.55-.61,7.83-.61,4.03,0,6.98.94,8.86,2.62,1.73,1.5,2.77,3.79,2.77,6.61s-.84,5.11-2.44,6.75c-2.16,2.3-5.67,3.47-9.65,3.47-1.22,0-2.34-.05-3.28-.28v12.65h-4.08v-31.21ZM273.01,199.77c.89.23,2.02.33,3.37.33,4.92,0,7.92-2.39,7.92-6.75s-2.95-6.18-7.45-6.18c-1.78,0-3.14.14-3.84.33v12.28Z"/>
  <path class="cls-1" d="M307.31,184.17v31.58h-4.08v-31.58h4.08Z"/>
  <path class="cls-1" d="M329.8,187.64h-9.61v-3.47h23.38v3.47h-9.65v28.12h-4.12v-28.12Z"/>
  <path class="cls-1" d="M358.06,205.82l-3.28,9.93h-4.22l10.73-31.58h4.92l10.78,31.58h-4.36l-3.37-9.93h-11.2ZM368.41,202.63l-3.09-9.09c-.7-2.06-1.17-3.94-1.64-5.76h-.09c-.47,1.88-.98,3.8-1.59,5.72l-3.09,9.14h9.51Z"/>
  <path class="cls-1" d="M391,184.17h4.08v28.16h13.5v3.42h-17.57v-31.58Z"/>
  <path class="cls-1" d="M114.37,39.88s204.79-78.96,387.84,0h9.57s-162.31-89.73-397.41,0Z"/>
</svg>
